# Blender 4.2.0
# www.blender.org
mtllib FerrisWheelCart.mtl
o Cube
v 0.190934 0.959426 -0.190934
v 1.050000 -1.050000 -1.050000
v 0.190934 0.959426 0.190934
v 1.050000 -1.050000 1.050000
v -0.190934 0.959426 -0.190934
v -1.050000 -1.050000 -1.050000
v -0.190934 0.959426 0.190934
v -1.050000 -1.050000 1.050000
v 1.047227 -0.298704 1.047227
v -1.047227 -0.298704 1.047227
v 1.047227 -0.298704 -1.047227
v -1.047227 -0.298704 -1.047227
v 0.090755 1.551035 0.090755
v -0.090755 1.551035 0.090755
v 0.090755 1.551035 -0.090755
v -0.090755 1.551035 -0.090755
v 1.050692 -0.310211 -0.600140
v 1.050000 -0.321780 -0.200000
v 1.050000 -0.321780 0.200000
v 1.050692 -0.310211 0.600140
v 1.050000 -1.050000 0.600000
v 1.050000 -1.050000 0.200000
v 1.050000 -1.050000 -0.200000
v 1.050000 -1.050000 -0.600000
v -1.049603 -0.304786 0.600205
v -1.049603 -0.304786 -0.600205
v -1.033333 -1.066667 -0.600000
v -1.000000 -1.050000 -0.200000
v -1.000000 -1.050000 0.200000
v -1.033333 -1.066667 0.600000
v 0.199020 0.941397 -0.090681
v 0.199232 0.944652 -0.030535
v 0.199232 0.944652 0.030535
v 0.199020 0.941397 0.090681
v -0.199020 0.941397 0.090681
v -0.199232 0.944652 0.030535
v -0.199232 0.944652 -0.030535
v -0.199020 0.941397 -0.090681
v 0.091952 1.550003 -0.030694
v 0.091914 1.550002 -0.010418
v 0.091914 1.550002 0.010418
v 0.091952 1.550003 0.030694
v -0.091952 1.550003 0.030694
v -0.091914 1.550002 0.010418
v -0.091914 1.550002 -0.010418
v -0.091952 1.550003 -0.030694
v 0.600139 -0.310211 1.050692
v 0.200000 -0.321780 1.050000
v -0.200000 -0.321780 1.050000
v -0.600139 -0.310211 1.050692
v -0.600000 -1.050000 1.050000
v -0.200000 -1.050000 1.050000
v 0.200000 -1.050000 1.050000
v 0.600000 -1.050000 1.050000
v -0.600139 -0.310211 -1.050692
v -0.200000 -0.321780 -1.050000
v 0.200000 -0.321780 -1.050000
v 0.600139 -0.310211 -1.050692
v 0.600000 -1.050000 -1.050000
v 0.200000 -1.050000 -1.050000
v -0.200000 -1.050000 -1.050000
v -0.600000 -1.050000 -1.050000
v 0.090681 0.941397 0.199020
v 0.030535 0.944652 0.199232
v -0.030535 0.944652 0.199232
v -0.090681 0.941397 0.199020
v -0.090681 0.941397 -0.199020
v -0.030535 0.944652 -0.199232
v 0.030535 0.944652 -0.199232
v 0.090681 0.941397 -0.199020
v 0.030694 1.550003 0.091952
v 0.010418 1.550002 0.091914
v -0.010418 1.550002 0.091914
v -0.030694 1.550003 0.091952
v -0.030694 1.550003 -0.091952
v -0.010418 1.550002 -0.091914
v 0.010418 1.550002 -0.091914
v 0.030694 1.550003 -0.091952
v -0.030000 1.550000 -0.030000
v -0.010000 1.550000 -0.030000
v 0.010000 1.550000 -0.030000
v 0.030000 1.550000 -0.030000
v -0.030000 1.550000 -0.010000
v 0.030000 1.550000 -0.010000
v -0.030000 1.550000 0.010000
v 0.030000 1.550000 0.010000
v -0.030000 1.550000 0.030000
v -0.010000 1.550000 0.030000
v 0.010000 1.550000 0.030000
v 0.030000 1.550000 0.030000
v 0.600000 -1.050000 -0.600000
v 0.200000 -1.050000 -0.600000
v -0.200000 -1.050000 -0.600000
v -0.600000 -1.050000 -0.600000
v 0.600000 -1.050000 -0.200000
v 0.200000 -1.050000 -0.200000
v -0.200000 -1.050000 -0.200000
v -0.600000 -1.050000 -0.200000
v 0.600000 -1.050000 0.200000
v 0.200000 -1.050000 0.200000
v -0.200000 -1.050000 0.200000
v -0.600000 -1.050000 0.200000
v 0.600000 -1.050000 0.600000
v 0.200000 -1.050000 0.600000
v -0.200000 -1.050000 0.600000
v -0.600000 -1.050000 0.600000
v 0.150000 0.921182 -0.150000
v 1.000000 -1.000000 -1.000000
v 0.150000 0.921182 0.150000
v 1.000000 -1.000000 1.000000
v -0.150000 0.921182 -0.150000
v -1.000000 -1.000000 -1.000000
v -0.150000 0.921182 0.150000
v -1.000000 -1.000000 1.000000
v 1.000000 -0.321780 1.000000
v -1.000000 -0.321780 1.000000
v 1.000000 -0.321780 -1.000000
v -1.000000 -0.321780 -1.000000
v 0.050000 1.500000 0.050000
v -0.050000 1.500000 0.050000
v 0.050000 1.500000 -0.050000
v -0.050000 1.500000 -0.050000
v 1.000000 -0.321780 -0.600000
v 1.000000 -0.321780 -0.200000
v 1.000000 -0.321780 0.200000
v 1.000000 -0.321780 0.600000
v 1.000000 -1.000000 0.600000
v 1.000000 -1.000000 0.200000
v 1.000000 -1.000000 -0.200000
v 1.000000 -1.000000 -0.600000
v -1.000000 -0.321780 0.600000
v -1.000000 -0.321780 -0.600000
v -1.000000 -1.000000 -0.600000
v -1.000000 -1.000000 -0.200000
v -1.000000 -1.000000 0.200000
v -1.000000 -1.000000 0.600000
v 0.150000 0.926729 -0.090000
v 0.150000 0.935924 -0.030000
v 0.150000 0.935924 0.030000
v 0.150000 0.926729 0.090000
v -0.150000 0.926729 0.090000
v -0.150000 0.935924 0.030000
v -0.150000 0.935924 -0.030000
v -0.150000 0.926729 -0.090000
v 0.050000 1.500000 -0.030000
v 0.050000 1.500000 -0.010000
v 0.050000 1.500000 0.010000
v 0.050000 1.500000 0.030000
v -0.050000 1.500000 0.030000
v -0.050000 1.500000 0.010000
v -0.050000 1.500000 -0.010000
v -0.050000 1.500000 -0.030000
v 0.600000 -0.321780 1.000000
v 0.200000 -0.321780 1.000000
v -0.200000 -0.321780 1.000000
v -0.600000 -0.321780 1.000000
v -0.600000 -1.000000 1.000000
v -0.200000 -1.000000 1.000000
v 0.200000 -1.000000 1.000000
v 0.600000 -1.000000 1.000000
v -0.600000 -0.321780 -1.000000
v -0.200000 -0.321780 -1.000000
v 0.200000 -0.321780 -1.000000
v 0.600000 -0.321780 -1.000000
v 0.600000 -1.000000 -1.000000
v 0.200000 -1.000000 -1.000000
v -0.200000 -1.000000 -1.000000
v -0.600000 -1.000000 -1.000000
v 0.090000 0.926729 0.150000
v 0.030000 0.935924 0.150000
v -0.030000 0.935924 0.150000
v -0.090000 0.926729 0.150000
v -0.090000 0.926729 -0.150000
v -0.030000 0.935924 -0.150000
v 0.030000 0.935924 -0.150000
v 0.090000 0.926729 -0.150000
v 0.030000 1.500000 0.050000
v 0.010000 1.500000 0.050000
v -0.010000 1.500000 0.050000
v -0.030000 1.500000 0.050000
v -0.030000 1.500000 -0.050000
v -0.010000 1.500000 -0.050000
v 0.010000 1.500000 -0.050000
v 0.030000 1.500000 -0.050000
v -0.030000 1.500000 -0.030000
v -0.010000 1.500000 -0.030000
v 0.010000 1.500000 -0.030000
v 0.030000 1.500000 -0.030000
v -0.030000 1.500000 -0.010000
v -0.010000 1.500000 -0.010000
v 0.010000 1.500000 -0.010000
v 0.030000 1.500000 -0.010000
v -0.030000 1.500000 0.010000
v -0.010000 1.500000 0.010000
v 0.010000 1.500000 0.010000
v 0.030000 1.500000 0.010000
v -0.030000 1.500000 0.030000
v -0.010000 1.500000 0.030000
v 0.010000 1.500000 0.030000
v 0.030000 1.500000 0.030000
v 0.600000 -1.000000 -0.600000
v 0.200000 -1.000000 -0.600000
v -0.200000 -1.000000 -0.600000
v -0.600000 -1.000000 -0.600000
v 0.600000 -1.000000 -0.200000
v 0.200000 -1.000000 -0.200000
v -0.200000 -1.000000 -0.200000
v -0.600000 -1.000000 -0.200000
v 0.600000 -1.000000 0.200000
v 0.200000 -1.000000 0.200000
v -0.200000 -1.000000 0.200000
v -0.600000 -1.000000 0.200000
v 0.600000 -1.000000 0.600000
v 0.200000 -1.000000 0.600000
v -0.200000 -1.000000 0.600000
v -0.600000 -1.000000 0.600000
v -0.030000 1.600000 -0.030000
v -0.010000 1.600000 -0.030000
v 0.010000 1.600000 -0.030000
v 0.030000 1.600000 -0.030000
v -0.030000 1.600000 0.030000
v -0.010000 1.600000 0.030000
v 0.010000 1.600000 0.030000
v 0.030000 1.600000 0.030000
v 0.030000 1.600000 0.010000
v -0.030000 1.600000 0.010000
v 0.030000 1.600000 -0.010000
v -0.030000 1.600000 -0.010000
v 0.030000 1.550000 0.010000
v 0.030000 1.550000 0.030000
v -0.030000 1.550000 0.010000
v -0.030000 1.550000 0.030000
v 0.030000 1.550000 -0.010000
v -0.030000 1.550000 -0.010000
v 0.030000 1.550000 -0.030000
v -0.030000 1.550000 -0.030000
v 0.030000 1.600000 0.010000
v 0.030000 1.600000 0.030000
v -0.030000 1.600000 0.010000
v -0.030000 1.600000 0.030000
v 0.030000 1.600000 -0.010000
v -0.030000 1.600000 -0.010000
v 0.030000 1.600000 -0.030000
v -0.030000 1.600000 -0.030000
v -1.030000 1.600000 0.010000
v -1.030000 1.600000 0.030000
v -1.030000 1.550000 0.010000
v -1.030000 1.550000 0.030000
v -1.030000 1.550000 -0.010000
v -1.030000 1.550000 -0.030000
v -1.030000 1.600000 -0.010000
v -1.030000 1.600000 -0.030000
v 1.030000 1.550000 -0.010000
v 1.030000 1.550000 0.010000
v 1.030000 1.600000 0.010000
v 1.030000 1.600000 0.030000
v 1.030000 1.550000 0.030000
v 1.030000 1.550000 -0.030000
v 1.030000 1.600000 -0.010000
v 1.030000 1.600000 -0.030000
vn -0.9998 -0.0089 0.0157
vn 0.0038 0.0014 -1.0000
vn 1.0000 0.0014 0.0038
vn -0.0038 0.0014 1.0000
vn -0.0000 -1.0000 -0.0000
vn -0.0362 0.1747 -0.9840
vn 0.0126 0.5579 0.8298
vn 0.8298 0.5579 -0.0126
vn -0.0126 0.5579 -0.8298
vn -0.8285 0.5599 0.0088
vn 0.0085 0.9999 -0.0085
vn 0.0362 0.1747 0.9840
vn -0.9840 0.1747 0.0362
vn 0.9840 0.1747 -0.0362
vn 0.9840 0.1747 0.0362
vn 0.9846 0.1745 0.0092
vn 0.9846 0.1746 -0.0000
vn 0.9846 0.1745 -0.0092
vn -0.9840 0.1747 -0.0362
vn -0.9846 0.1745 -0.0092
vn -0.9846 0.1746 -0.0000
vn -0.9846 0.1745 0.0092
vn 0.0085 0.9999 0.0085
vn -0.0000 1.0000 -0.0000
vn -0.8285 0.5599 -0.0088
vn 0.8298 0.5579 0.0126
vn 1.0000 0.0014 -0.0038
vn 1.0000 -0.0005 0.0009
vn 1.0000 -0.0000 -0.0000
vn 1.0000 -0.0005 -0.0009
vn -0.9998 -0.0089 -0.0157
vn 0.0200 -0.9996 -0.0200
vn 0.0200 -0.9996 0.0200
vn 0.0189 -0.9996 -0.0189
vn -0.0085 0.9999 0.0085
vn -0.0362 0.1747 0.9840
vn -0.0092 0.1745 0.9846
vn -0.0000 0.1746 0.9846
vn 0.0092 0.1745 0.9846
vn -0.0085 0.9999 -0.0085
vn 0.0126 0.5579 -0.8298
vn -0.0126 0.5579 0.8298
vn 0.0362 0.1747 -0.9840
vn 0.0092 0.1745 -0.9846
vn -0.0000 0.1746 -0.9846
vn -0.0092 0.1745 -0.9846
vn 0.0189 -0.9996 0.0189
vn 0.0038 0.0014 1.0000
vn -0.0009 -0.0005 1.0000
vn -0.0000 -0.0000 1.0000
vn 0.0009 -0.0005 1.0000
vn -0.0038 0.0014 -1.0000
vn 0.0009 -0.0005 -1.0000
vn -0.0000 -0.0000 -1.0000
vn -0.0009 -0.0005 -1.0000
vn -1.0000 -0.0000 -0.0000
vn 0.0120 -0.1726 0.9849
vn 0.0068 -0.5662 -0.8243
vn -0.8243 -0.5662 -0.0068
vn -0.0068 -0.5662 0.8243
vn 0.8243 -0.5662 0.0068
vn -0.0120 -0.1726 -0.9849
vn 0.9849 -0.1726 -0.0120
vn -0.9849 -0.1726 0.0120
vn -0.9849 -0.1726 -0.0120
vn -0.9844 -0.1745 -0.0201
vn -0.9846 -0.1746 -0.0000
vn -0.9844 -0.1745 0.0201
vn 0.9849 -0.1726 0.0120
vn 0.9844 -0.1745 0.0201
vn 0.9846 -0.1746 -0.0000
vn 0.9844 -0.1745 -0.0201
vn 0.8243 -0.5662 -0.0068
vn -0.8243 -0.5662 0.0068
vn 0.0120 -0.1726 -0.9849
vn 0.0201 -0.1745 -0.9844
vn -0.0000 -0.1746 -0.9846
vn -0.0201 -0.1745 -0.9844
vn 0.0068 -0.5662 0.8243
vn -0.0068 -0.5662 -0.8243
vn -0.0120 -0.1726 0.9849
vn -0.0201 -0.1745 0.9844
vn -0.0000 -0.1746 0.9846
vn 0.0201 -0.1745 0.9844
vn -0.1141 0.9934 0.0143
vn -0.1141 0.9934 -0.0143
vn -0.9610 0.2746 0.0343
vn -0.9610 0.2746 -0.0343
vn 0.2317 -0.9677 0.0999
vn 0.1746 -0.9846 -0.0000
vn 0.2317 -0.9677 -0.0999
vn -0.2317 -0.9677 -0.0999
vn -0.1746 -0.9846 -0.0000
vn -0.2317 -0.9677 0.0999
vn -0.1086 -0.3118 -0.9439
vn -0.1086 -0.3118 0.9439
vn 0.0923 -0.3214 0.9424
vn 0.0923 -0.3214 -0.9424
vn -0.0025 0.0001 -1.0000
vn -0.0025 0.0001 1.0000
vn -0.0143 0.9934 -0.1141
vn 0.0143 0.9934 -0.1141
vn 0.0143 0.9934 0.1141
vn -0.0143 0.9934 0.1141
vn -0.0999 -0.9677 0.2317
vn -0.0000 -0.9846 0.1746
vn 0.0999 -0.9677 0.2317
vn 0.0999 -0.9677 -0.2317
vn -0.0000 -0.9846 -0.1746
vn -0.0999 -0.9677 -0.2317
vn 0.9424 -0.3214 -0.0923
vn -0.9424 -0.3214 -0.0923
vn -0.9424 -0.3214 0.0923
vn 0.9424 -0.3214 0.0923
vt 0.375000 0.200000
vt 0.625000 0.200000
vt 0.625000 0.250000
vt 0.375000 0.250000
vt 0.375000 0.450000
vt 0.625000 0.450000
vt 0.625000 0.500000
vt 0.375000 0.500000
vt 0.375000 0.700000
vt 0.625000 0.700000
vt 0.625000 0.750000
vt 0.375000 0.750000
vt 0.375000 0.950000
vt 0.625000 0.950000
vt 0.625000 1.000000
vt 0.375000 1.000000
vt 0.325000 0.700000
vt 0.325000 0.750000
vt 0.768750 0.593750
vt 0.781250 0.593750
vt 0.768750 0.656250
vt 0.781250 0.656250
vt 0.875000 0.750000
vt 0.825000 0.750000
vt 0.718750 0.643750
vt 0.718750 0.656250
vt 0.731250 0.593750
vt 0.718750 0.593750
vt 0.675000 0.500000
vt 0.781250 0.606250
vt 0.875000 0.500000
vt 0.875000 0.550000
vt 0.768750 0.643750
vt 0.781250 0.643750
vt 0.731250 0.656250
vt 0.718750 0.606250
vt 0.718750 0.631250
vt 0.718750 0.618750
vt 0.781250 0.618750
vt 0.781250 0.631250
vt 0.768750 0.606250
vt 0.768750 0.618750
vt 0.768750 0.631250
vt 0.875000 0.700000
vt 0.625000 0.550000
vt 0.325000 0.500000
vt 0.375000 0.550000
vt 0.325000 0.550000
vt 0.375000 0.600000
vt 0.325000 0.600000
vt 0.375000 0.650000
vt 0.325000 0.650000
vt 0.625000 0.600000
vt 0.625000 0.650000
vt 0.375000 0.000000
vt 0.625000 0.000000
vt 0.625000 0.050000
vt 0.375000 0.050000
vt 0.125000 0.650000
vt 0.175000 0.650000
vt 0.175000 0.700000
vt 0.125000 0.700000
vt 0.225000 0.650000
vt 0.225000 0.700000
vt 0.275000 0.650000
vt 0.275000 0.700000
vt 0.125000 0.600000
vt 0.175000 0.600000
vt 0.225000 0.600000
vt 0.275000 0.600000
vt 0.125000 0.550000
vt 0.175000 0.550000
vt 0.225000 0.550000
vt 0.275000 0.550000
vt 0.125000 0.500000
vt 0.175000 0.500000
vt 0.225000 0.500000
vt 0.275000 0.500000
vt 0.731250 0.631250
vt 0.731250 0.643750
vt 0.731250 0.618750
vt 0.731250 0.606250
vt 0.743750 0.593750
vt 0.743750 0.606250
vt 0.756250 0.593750
vt 0.756250 0.606250
vt 0.756250 0.656250
vt 0.743750 0.656250
vt 0.743750 0.643750
vt 0.756250 0.643750
vt 0.825000 0.500000
vt 0.675000 0.750000
vt 0.175000 0.750000
vt 0.125000 0.750000
vt 0.225000 0.750000
vt 0.275000 0.750000
vt 0.625000 0.800000
vt 0.375000 0.800000
vt 0.625000 0.850000
vt 0.375000 0.850000
vt 0.625000 0.900000
vt 0.375000 0.900000
vt 0.625000 0.300000
vt 0.375000 0.300000
vt 0.625000 0.350000
vt 0.375000 0.350000
vt 0.625000 0.400000
vt 0.375000 0.400000
vt 0.743750 0.631250
vt 0.756250 0.631250
vt 0.743750 0.618750
vt 0.756250 0.618750
s 0
usemtl Material
f 27/1/1 26/2/1 12/3/1 6/4/1
f 59/5/2 58/6/2 11/7/2 2/8/2
f 21/9/3 20/10/3 9/11/3 4/12/3
f 51/13/4 50/14/4 10/15/4 8/16/4
f 103/17/5 21/9/5 4/12/5 54/18/5
f 67/19/6 5/20/6 16/20/6 75/19/6
f 66/21/7 7/22/7 10/23/7 50/24/7
f 34/25/8 3/26/8 9/11/8 20/10/8
f 70/27/9 1/28/9 11/7/9 58/29/9
f 38/30/10 5/20/10 12/31/10 26/32/10
f 87/33/11 43/34/11 14/22/11 74/21/11
f 63/35/12 3/26/12 13/26/12 71/35/12
f 35/34/13 7/22/13 14/22/13 43/34/13
f 31/36/14 1/28/14 15/28/14 39/36/14
f 3/26/15 34/25/15 42/25/15 13/26/15
f 34/25/16 33/37/16 41/37/16 42/25/16
f 33/37/17 32/38/17 40/38/17 41/37/17
f 32/38/18 31/36/18 39/36/18 40/38/18
f 5/20/19 38/30/19 46/30/19 16/20/19
f 38/30/20 37/39/20 45/39/20 46/30/20
f 37/39/21 36/40/21 44/40/21 45/39/21
f 36/40/22 35/34/22 43/34/22 44/40/22
f 75/19/23 16/20/23 46/30/23 79/41/23
f 79/41/24 46/30/24 45/39/24 83/42/24
f 83/42/24 45/39/24 44/40/24 85/43/24
f 85/43/24 44/40/24 43/34/24 87/33/24
f 7/22/25 35/34/25 25/44/25 10/23/25
f 1/28/26 31/36/26 17/45/26 11/7/26
f 59/46/5 2/8/5 24/47/5 91/48/5
f 91/48/5 24/47/5 23/49/5 95/50/5
f 95/50/5 23/49/5 22/51/5 99/52/5
f 99/52/5 22/51/5 21/9/5 103/17/5
f 2/8/27 11/7/27 17/45/27 24/47/27
f 24/47/28 17/45/28 18/53/28 23/49/28
f 23/49/29 18/53/29 19/54/29 22/51/29
f 22/51/30 19/54/30 20/10/30 21/9/30
f 8/55/31 10/56/31 25/57/31 30/58/31
f 29/59/32 102/60/32 106/61/32 30/62/32
f 102/60/5 101/63/5 105/64/5 106/61/5
f 101/63/5 100/65/5 104/66/5 105/64/5
f 100/65/5 99/52/5 103/17/5 104/66/5
f 28/67/5 98/68/5 102/60/5 29/59/5
f 98/68/5 97/69/5 101/63/5 102/60/5
f 97/69/5 96/70/5 100/65/5 101/63/5
f 96/70/5 95/50/5 99/52/5 100/65/5
f 27/71/33 94/72/33 98/68/33 28/67/33
f 94/72/5 93/73/5 97/69/5 98/68/5
f 93/73/5 92/74/5 96/70/5 97/69/5
f 92/74/5 91/48/5 95/50/5 96/70/5
f 6/75/34 62/76/34 94/72/34 27/71/34
f 62/76/5 61/77/5 93/73/5 94/72/5
f 61/77/5 60/78/5 92/74/5 93/73/5
f 60/78/5 59/46/5 91/48/5 92/74/5
f 41/37/24 86/79/24 90/80/24 42/25/24
f 85/43/24 87/33/24 232/33/24 231/43/24
f 40/38/24 84/81/24 86/79/24 41/37/24
f 39/36/24 82/82/24 84/81/24 40/38/24
f 15/28/35 78/27/35 82/82/35 39/36/35
f 78/27/24 77/83/24 81/84/24 82/82/24
f 77/83/24 76/85/24 80/86/24 81/84/24
f 76/85/24 75/19/24 79/41/24 80/86/24
f 7/22/36 66/21/36 74/21/36 14/22/36
f 66/21/37 65/87/37 73/87/37 74/21/37
f 65/87/38 64/88/38 72/88/38 73/87/38
f 64/88/39 63/35/39 71/35/39 72/88/39
f 42/25/40 90/80/40 71/35/40 13/26/40
f 90/80/24 89/89/24 72/88/24 71/35/24
f 89/89/24 88/90/24 73/87/24 72/88/24
f 88/90/24 87/33/24 74/21/24 73/87/24
f 5/20/41 67/19/41 55/91/41 12/31/41
f 3/26/42 63/35/42 47/92/42 9/11/42
f 1/28/43 70/27/43 78/27/43 15/28/43
f 70/27/44 69/83/44 77/83/44 78/27/44
f 69/83/45 68/85/45 76/85/45 77/83/45
f 68/85/46 67/19/46 75/19/46 76/85/46
f 30/62/47 106/61/47 51/93/47 8/94/47
f 106/61/5 105/64/5 52/95/5 51/93/5
f 105/64/5 104/66/5 53/96/5 52/95/5
f 104/66/5 103/17/5 54/18/5 53/96/5
f 4/12/48 9/11/48 47/97/48 54/98/48
f 54/98/49 47/97/49 48/99/49 53/100/49
f 53/100/50 48/99/50 49/101/50 52/102/50
f 52/102/51 49/101/51 50/14/51 51/13/51
f 6/4/52 12/3/52 55/103/52 62/104/52
f 62/104/53 55/103/53 56/105/53 61/106/53
f 61/106/54 56/105/54 57/107/54 60/108/54
f 60/108/55 57/107/55 58/6/55 59/5/55
f 133/1/29 112/4/29 118/3/29 132/2/29
f 165/5/50 108/8/50 117/7/50 164/6/50
f 127/9/56 110/12/56 115/11/56 126/10/56
f 157/13/54 114/16/54 116/15/54 156/14/54
f 213/17/24 160/18/24 110/12/24 127/9/24
f 173/19/57 181/19/57 122/20/57 111/20/57
f 172/21/58 156/24/58 116/23/58 113/22/58
f 140/25/59 126/10/59 115/11/59 109/26/59
f 176/27/60 164/29/60 117/7/60 107/28/60
f 144/30/61 132/32/61 118/31/61 111/20/61
f 197/33/5 180/21/5 120/22/5 149/34/5
f 169/35/62 177/35/62 119/26/62 109/26/62
f 141/34/63 149/34/63 120/22/63 113/22/63
f 137/36/64 145/36/64 121/28/64 107/28/64
f 109/26/65 119/26/65 148/25/65 140/25/65
f 140/25/66 148/25/66 147/37/66 139/37/66
f 139/37/67 147/37/67 146/38/67 138/38/67
f 138/38/68 146/38/68 145/36/68 137/36/68
f 111/20/69 122/20/69 152/30/69 144/30/69
f 144/30/70 152/30/70 151/39/70 143/39/70
f 143/39/71 151/39/71 150/40/71 142/40/71
f 142/40/72 150/40/72 149/34/72 141/34/72
f 181/19/5 185/41/5 152/30/5 122/20/5
f 185/41/5 189/42/5 151/39/5 152/30/5
f 189/42/5 193/43/5 150/40/5 151/39/5
f 193/43/5 197/33/5 149/34/5 150/40/5
f 113/22/73 116/23/73 131/44/73 141/34/73
f 107/28/74 117/7/74 123/45/74 137/36/74
f 165/46/24 201/48/24 130/47/24 108/8/24
f 201/48/24 205/50/24 129/49/24 130/47/24
f 205/50/24 209/52/24 128/51/24 129/49/24
f 209/52/24 213/17/24 127/9/24 128/51/24
f 108/8/56 130/47/56 123/45/56 117/7/56
f 130/47/56 129/49/56 124/53/56 123/45/56
f 129/49/56 128/51/56 125/54/56 124/53/56
f 128/51/56 127/9/56 126/10/56 125/54/56
f 114/55/29 136/58/29 131/57/29 116/56/29
f 135/59/24 136/62/24 216/61/24 212/60/24
f 212/60/24 216/61/24 215/64/24 211/63/24
f 211/63/24 215/64/24 214/66/24 210/65/24
f 210/65/24 214/66/24 213/17/24 209/52/24
f 134/67/24 135/59/24 212/60/24 208/68/24
f 208/68/24 212/60/24 211/63/24 207/69/24
f 207/69/24 211/63/24 210/65/24 206/70/24
f 206/70/24 210/65/24 209/52/24 205/50/24
f 133/71/24 134/67/24 208/68/24 204/72/24
f 204/72/24 208/68/24 207/69/24 203/73/24
f 203/73/24 207/69/24 206/70/24 202/74/24
f 202/74/24 206/70/24 205/50/24 201/48/24
f 112/75/24 133/71/24 204/72/24 168/76/24
f 168/76/24 204/72/24 203/73/24 167/77/24
f 167/77/24 203/73/24 202/74/24 166/78/24
f 166/78/24 202/74/24 201/48/24 165/46/24
f 147/37/5 148/25/5 200/80/5 196/79/5
f 196/79/5 200/80/5 199/89/5 195/109/5
f 195/109/5 199/89/5 198/90/5 194/110/5
f 194/110/5 198/90/5 197/33/5 193/43/5
f 146/38/5 147/37/5 196/79/5 192/81/5
f 192/81/5 196/79/5 195/109/5 191/111/5
f 191/111/5 195/109/5 194/110/5 190/112/5
f 190/112/5 194/110/5 193/43/5 189/42/5
f 145/36/5 146/38/5 192/81/5 188/82/5
f 188/82/5 192/81/5 191/111/5 187/84/5
f 187/84/5 191/111/5 190/112/5 186/86/5
f 186/86/5 190/112/5 189/42/5 185/41/5
f 121/28/5 145/36/5 188/82/5 184/27/5
f 184/27/5 188/82/5 187/84/5 183/83/5
f 183/83/5 187/84/5 186/86/5 182/85/5
f 182/85/5 186/86/5 185/41/5 181/19/5
f 113/22/75 120/22/75 180/21/75 172/21/75
f 172/21/76 180/21/76 179/87/76 171/87/76
f 171/87/77 179/87/77 178/88/77 170/88/77
f 170/88/78 178/88/78 177/35/78 169/35/78
f 148/25/5 119/26/5 177/35/5 200/80/5
f 200/80/5 177/35/5 178/88/5 199/89/5
f 199/89/5 178/88/5 179/87/5 198/90/5
f 198/90/5 179/87/5 180/21/5 197/33/5
f 111/20/79 118/31/79 161/91/79 173/19/79
f 109/26/80 115/11/80 153/92/80 169/35/80
f 107/28/81 121/28/81 184/27/81 176/27/81
f 176/27/82 184/27/82 183/83/82 175/83/82
f 175/83/83 183/83/83 182/85/83 174/85/83
f 174/85/84 182/85/84 181/19/84 173/19/84
f 136/62/24 114/94/24 157/93/24 216/61/24
f 216/61/24 157/93/24 158/95/24 215/64/24
f 215/64/24 158/95/24 159/96/24 214/66/24
f 214/66/24 159/96/24 160/18/24 213/17/24
f 110/12/54 160/98/54 153/97/54 115/11/54
f 160/98/54 159/100/54 154/99/54 153/97/54
f 159/100/54 158/102/54 155/101/54 154/99/54
f 158/102/54 157/13/54 156/14/54 155/101/54
f 112/4/50 168/104/50 161/103/50 118/3/50
f 168/104/50 167/106/50 162/105/50 161/103/50
f 167/106/50 166/108/50 163/107/50 162/105/50
f 166/108/50 165/5/50 164/6/50 163/107/50
f 18/53/85 17/45/85 123/45/85 124/53/85
f 19/54/24 18/53/24 124/53/24 125/54/24
f 20/10/86 19/54/86 125/54/86 126/10/86
f 27/71/87 28/67/87 134/67/87 133/71/87
f 28/67/56 29/59/56 135/59/56 134/67/56
f 29/59/88 30/62/88 136/62/88 135/59/88
f 31/36/89 32/38/89 138/38/89 137/36/89
f 32/38/90 33/37/90 139/37/90 138/38/90
f 33/37/91 34/25/91 140/25/91 139/37/91
f 35/34/92 36/40/92 142/40/92 141/34/92
f 36/40/93 37/39/93 143/39/93 142/40/93
f 37/39/94 38/30/94 144/30/94 143/39/94
f 25/44/95 35/34/95 141/34/95 131/44/95
f 38/30/96 26/32/96 132/32/96 144/30/96
f 17/45/97 31/36/97 137/36/97 123/45/97
f 34/25/98 20/10/98 126/10/98 140/25/98
f 30/58/99 25/57/99 131/57/99 136/58/99
f 26/2/100 27/1/100 133/1/100 132/2/100
f 48/99/101 47/97/101 153/97/101 154/99/101
f 49/101/24 48/99/24 154/99/24 155/101/24
f 50/14/102 49/101/102 155/101/102 156/14/102
f 56/105/103 55/103/103 161/103/103 162/105/103
f 57/107/24 56/105/24 162/105/24 163/107/24
f 58/6/104 57/107/104 163/107/104 164/6/104
f 63/35/105 64/88/105 170/88/105 169/35/105
f 64/88/106 65/87/106 171/87/106 170/88/106
f 65/87/107 66/21/107 172/21/107 171/87/107
f 67/19/108 68/85/108 174/85/108 173/19/108
f 68/85/109 69/83/109 175/83/109 174/85/109
f 69/83/110 70/27/110 176/27/110 175/83/110
f 55/91/111 67/19/111 173/19/111 161/91/111
f 70/27/112 58/29/112 164/29/112 176/27/112
f 47/92/113 63/35/113 169/35/113 153/92/113
f 66/21/114 50/24/114 156/24/114 172/21/114
f 220/82/24 219/84/24 218/86/24 217/41/24 228/42/24 226/43/24 221/33/24 222/90/24 223/89/24 224/80/24 225/79/24 227/81/24
f 236/41/5 234/42/5 249/42/5 250/41/5
f 227/81/24 225/79/24 237/79/24 241/81/24
f 90/80/24 86/79/24 229/79/24 230/80/24
f 228/42/24 217/41/24 244/41/24 242/42/24
f 238/80/50 230/80/50 257/80/50 256/80/50
f 82/82/54 81/84/54 80/86/54 79/41/54 217/41/54 218/86/54 219/84/54 220/82/54
f 220/82/24 227/81/24 241/81/24 243/82/24
f 226/43/24 228/42/24 242/42/24 239/43/24
f 82/82/24 220/82/24 243/82/24 235/82/24
f 79/41/24 83/42/24 234/42/24 236/41/24
f 87/33/50 88/90/50 89/89/50 90/80/50 224/80/50 223/89/50 222/90/50 221/33/50
f 224/80/24 90/80/24 230/80/24 238/80/24
f 87/33/24 221/33/24 240/33/24 232/33/24
f 86/79/24 84/81/24 233/81/24 229/79/24
f 83/42/24 85/43/24 231/43/24 234/42/24
f 217/41/24 79/41/24 236/41/24 244/41/24
f 225/79/24 224/80/24 238/80/24 237/79/24
f 84/81/24 82/82/24 235/82/24 233/81/24
f 221/33/24 226/43/24 239/43/24 240/33/24
f 250/41/56 249/42/56 247/43/56 248/33/56 246/33/56 245/43/56 251/42/56 252/41/56
f 242/42/24 244/41/24 252/41/24 251/42/24
f 234/42/5 231/43/5 247/43/5 249/42/5
f 239/43/24 242/42/24 251/42/24 245/43/24
f 231/43/5 232/33/5 248/33/5 247/43/5
f 240/33/24 239/43/24 245/43/24 246/33/24
f 232/33/50 240/33/50 246/33/50 248/33/50
f 244/41/54 236/41/54 250/41/54 252/41/54
f 254/79/29 253/81/29 258/82/29 260/82/29 259/81/29 255/79/29 256/80/29 257/80/29
f 237/79/24 238/80/24 256/80/24 255/79/24
f 235/82/54 243/82/54 260/82/54 258/82/54
f 233/81/5 235/82/5 258/82/5 253/81/5
f 230/80/5 229/79/5 254/79/5 257/80/5
f 229/79/5 233/81/5 253/81/5 254/79/5
f 243/82/24 241/81/24 259/81/24 260/82/24
f 241/81/24 237/79/24 255/79/24 259/81/24
