{"accessors":[{"bufferView":0,"byteOffset":0,"componentType":5126,"count":216,"max":[0.250450015068054,0.5,-0.0461550056934357],"min":[-0.697919964790344,-0.509489834308624,-0.90125298500061],"normalized":false,"type":"VEC3"},{"bufferView":1,"byteOffset":0,"componentType":5126,"count":216,"max":[0.0,0.0,0.0000763009302318096,-1.0],"min":[-1.0,-1.0,-1.0,-1.0],"normalized":false,"type":"VEC4"},{"bufferView":2,"byteOffset":0,"componentType":5126,"count":216,"max":[1.0,1.0,1.0],"min":[-1.0,-1.0,-1.0],"normalized":false,"type":"VEC3"},{"bufferView":3,"byteOffset":0,"componentType":5126,"count":216,"max":[1.0,1.0],"min":[0.0,0.0],"normalized":false,"type":"VEC2"},{"bufferView":4,"byteOffset":0,"componentType":5123,"count":216,"max":[215.0],"min":[0.0],"normalized":false,"type":"SCALAR"},{"bufferView":5,"byteOffset":0,"componentType":5126,"count":216,"max":[0.250450015068054,0.5,-0.0461550056934357],"min":[-0.697919964790344,-0.509489834308624,-0.90125298500061],"normalized":false,"type":"VEC3"},{"bufferView":6,"byteOffset":0,"componentType":5126,"count":216,"max":[0.0,0.0,0.0000763009302318096,-1.0],"min":[-1.0,-1.0,-1.0,-1.0],"normalized":false,"type":"VEC4"},{"bufferView":7,"byteOffset":0,"componentType":5126,"count":216,"max":[1.0,1.0,1.0],"min":[-1.0,-1.0,-1.0],"normalized":false,"type":"VEC3"},{"bufferView":8,"byteOffset":0,"componentType":5126,"count":216,"max":[1.0,1.0],"min":[0.0,0.0],"normalized":false,"type":"VEC2"},{"bufferView":9,"byteOffset":0,"componentType":5123,"count":216,"max":[215.0],"min":[0.0],"normalized":false,"type":"SCALAR"}],"asset":{"generator":"Godot Engine v4.4.1.stable.official@49a5bc7b616bd04689a2c89e89bda41f50241464","version":"2.0"},"bufferViews":[{"buffer":0,"byteLength":2592,"byteOffset":0,"byteStride":12,"target":34962},{"buffer":0,"byteLength":3456,"byteOffset":2592,"byteStride":16,"target":34962},{"buffer":0,"byteLength":2592,"byteOffset":6048,"byteStride":12,"target":34962},{"buffer":0,"byteLength":1728,"byteOffset":8640,"byteStride":8,"target":34962},{"buffer":0,"byteLength":432,"byteOffset":10368,"target":34963},{"buffer":0,"byteLength":2592,"byteOffset":10800,"byteStride":12,"target":34962},{"buffer":0,"byteLength":3456,"byteOffset":13392,"byteStride":16,"target":34962},{"buffer":0,"byteLength":2592,"byteOffset":16848,"byteStride":12,"target":34962},{"buffer":0,"byteLength":1728,"byteOffset":19440,"byteStride":8,"target":34962},{"buffer":0,"byteLength":432,"byteOffset":21168,"target":34963}],"buffers":[{"byteLength":21600,"uri":"grass0.bin"}],"extensionsUsed":["GODOT_single_root"],"materials":[{},{}],"meshes":[{"extras":{"targetNames":[]},"primitives":[{"attributes":{"NORMAL":2,"POSITION":0,"TANGENT":1,"TEXCOORD_0":3},"indices":4,"material":0,"mode":4}]},{"extras":{"targetNames":[]},"primitives":[{"attributes":{"NORMAL":7,"POSITION":5,"TANGENT":6,"TEXCOORD_0":8},"indices":9,"material":1,"mode":4}]}],"nodes":[{"children":[1,8],"name":"Node3D"},{"children":[2,3,4,5,6,7],"mesh":0,"name":"Grass2"},{"name":"CSGBox3D","translation":[-0.197919994592667,0.0,-0.546154975891113]},{"name":"CSGBox3D2","translation":[-0.622968971729279,0.0,-0.129407003521919]},{"name":"CSGBox3D3","translation":[-0.195435002446175,-0.00948982965201139,-0.818000972270966]},{"name":"CSGBox3D4","translation":[-0.620483994483948,-0.00948982965201139,-0.401253014802933]},{"name":"CSGBox3D5","translation":[0.175499007105827,0.0,-0.706420004367828]},{"name":"CSGBox3D6","translation":[-0.249549999833107,0.0,-0.289671987295151]},{"mesh":1,"name":"grassmesh"}],"scene":0,"scenes":[{"nodes":[0]}]}